<svg width="60" height="61" viewBox="0 0 60 61" fill="none" xmlns="http://www.w3.org/2000/svg">
<path d="M44.1421 42.41C41.806 44.7461 36.9266 49.6255 33.558 52.9941C31.5922 54.9599 28.4087 54.9608 26.443 52.995C23.1331 49.6851 18.3481 44.9001 15.8579 42.41C8.04738 34.5995 8.04738 21.9362 15.8579 14.1257C23.6684 6.3152 36.3317 6.3152 44.1421 14.1257C51.9526 21.9362 51.9526 34.5995 44.1421 42.41Z" stroke="#E2E2E2" stroke-width="5.03373" stroke-linecap="round" stroke-linejoin="round"/>
<path d="M37.5 28.2678C37.5 32.41 34.1421 35.7678 30 35.7678C25.8579 35.7678 22.5 32.41 22.5 28.2678C22.5 24.1257 25.8579 20.7678 30 20.7678C34.1421 20.7678 37.5 24.1257 37.5 28.2678Z" stroke="#E2E2E2" stroke-width="5.03373" stroke-linecap="round" stroke-linejoin="round"/>
</svg>
